<svg width="17" height="22" viewBox="0 0 17 22" fill="none" xmlns="http://www.w3.org/2000/svg">
<path d="M0.360517 4.67897C0.422659 8.14659 1.41544 11.5338 3.23502 14.4864C5.0546 17.4389 7.63412 19.8482 10.7038 21.4624C13.0669 22.6997 15.7171 21.0444 16.3335 18.4482L16.6124 17.2735C16.7663 16.6251 16.3624 15.9794 15.7328 15.7617C14.6886 15.4015 13.6988 14.8997 12.791 14.2703L10.5815 15.632C8.00508 13.5481 6.21725 10.6471 5.51377 7.4089L7.72326 6.04724C7.56868 4.9534 7.56495 3.84353 7.71218 2.74868C7.80213 2.08752 7.40667 1.4377 6.75823 1.28375L5.58351 1.00486C2.98737 0.388509 0.317399 2.01189 0.360517 4.67897Z" fill="#E95D1F"/>
</svg>
